<?xml version="1.0" encoding="UTF-8"?>
<svg id="Layer_2" data-name="Layer 2" xmlns="http://www.w3.org/2000/svg" viewBox="0 0 223.87 199">
  <g id="Layer_1-2" data-name="Layer 1">
    <path d="M158.5,114.55c-1.28-.16-2.6-.31-3.89-.51,1.32.16,2.6.35,3.89.51ZM111.93,88.27c-10.14-19.71-37.74-56.43-63.39-74.55C23.94-3.64,14.57-.65,8.4,2.15,1.28,5.37,0,16.29,0,22.71s3.54,52.7,5.83,60.44c7.58,25.54,34.63,34.16,59.54,31.37,1.28-.19,2.57-.35,3.89-.54-1.28.19-2.57.39-3.89.54-36.5,5.44-68.91,18.73-26.39,66.03,46.76,48.43,64.05-10.38,72.95-40.19,8.9,29.81,19.12,86.48,72.14,40.19,39.8-40.19,10.92-60.63-25.57-66.03-1.28-.16-2.6-.31-3.89-.51,1.32.16,2.6.35,3.89.51,24.91,2.76,51.93-5.87,59.54-31.37,2.29-7.73,5.83-53.99,5.83-60.44s-1.28-17.37-8.4-20.56c-6.14-2.76-15.55-5.79-40.11,11.58-25.69,18.11-53.29,54.84-63.43,74.55Z"/>
  </g>
</svg>