<?xml version="1.0" encoding="UTF-8"?>
<svg id="Layer_2" data-name="Layer 2" xmlns="http://www.w3.org/2000/svg" viewBox="0 0 199 198.96">
  <g id="Layer_1-2" data-name="Layer 1">
    <path d="M99.52,48.47c-28.19-.09-51.1,22.73-51.19,50.92-.09,28.19,22.73,51.1,50.92,51.19,28.19.09,51.1-22.73,51.19-50.92s-22.73-51.1-50.92-51.19ZM99.26,66.4c18.29-.09,33.16,14.69,33.25,32.99.09,18.29-14.69,33.16-32.99,33.25-18.29.09-33.16-14.69-33.25-32.99-.09-18.29,14.69-33.16,32.99-33.25ZM140.72,46.38c0-6.57,5.33-11.9,11.9-11.9s11.9,5.33,11.9,11.9-5.33,11.9-11.9,11.9-11.9-5.33-11.9-11.9ZM198.3,58.46c-.75-15.94-4.4-30.06-16.07-41.69-11.63-11.63-25.75-15.27-41.69-16.07C124.12-.23,74.88-.23,58.46.7c-15.89.75-30.01,4.4-41.69,16.03C5.09,28.36,1.5,42.47.7,58.41-.23,74.84-.23,124.07.7,140.5c.75,15.94,4.4,30.06,16.07,41.69,11.68,11.63,25.75,15.27,41.69,16.07,16.43.93,65.66.93,82.09,0,15.94-.75,30.06-4.4,41.69-16.07,11.63-11.63,15.27-25.75,16.07-41.69.93-16.43.93-65.62,0-82.04ZM177.08,158.12c-3.46,8.7-10.17,15.41-18.91,18.91-13.1,5.19-44.17,4-58.65,4s-45.59,1.15-58.65-4c-8.7-3.46-15.41-10.17-18.91-18.91-5.19-13.1-4-44.17-4-58.65s-1.15-45.59,4-58.65c3.46-8.7,10.17-15.41,18.91-18.91,13.1-5.19,44.17-4,58.65-4s45.59-1.15,58.65,4c8.7,3.46,15.41,10.17,18.91,18.91,5.19,13.1,4,44.17,4,58.65s1.2,45.59-4,58.65Z"/>
  </g>
</svg>