<?xml version="1.0" encoding="UTF-8"?>
<svg id="Layer_2" data-name="Layer 2" xmlns="http://www.w3.org/2000/svg" viewBox="0 0 200 200">
  <g id="Layer_1-2" data-name="Layer 1">
    <path d="M163.84,0H36.16C16.19,0,0,16.19,0,36.16v127.68c0,19.97,16.19,36.16,36.16,36.16h127.68c19.97,0,36.16-16.19,36.16-36.16V36.16c0-19.97-16.19-36.16-36.16-36.16ZM14.58,123.67c-.06.48-.29.9-.65,1.24-.37.34-.82.51-1.33.51s-.96-.2-1.32-.51c-.37-.31-.6-.76-.65-1.24-1.84-9.53-2.57-17.4-.17-26.91.03-.54.28-1.02.68-1.35.39-.34.9-.54,1.41-.54s1.04.17,1.41.54c.36.36.62.84.67,1.35h.06c3.05,9.48,2,17.18-.11,26.91ZM27.19,130.58c-.23,2.12-3.87,2.15-4.07,0-1.83-14.13-2.7-26.6-.08-40.76.06-.54.28-1.02.68-1.35.39-.34.9-.54,1.41-.54s1.04.17,1.41.54c.37.36.62.84.68,1.35h.05c2.88,14.3,1.95,26.4-.08,40.76ZM39.54,132.45c-.05.48-.28.87-.65,1.18-.36.31-.79.48-1.26.48s-.94-.17-1.27-.48c-.34-.31-.57-.73-.65-1.18-1.67-14.02-3.08-26.64-.12-40.51,0-.54.23-1.08.6-1.44.36-.37.9-.6,1.44-.6s1.07.23,1.43.6c.37.36.6.9.6,1.44,3.16,13.96,1.75,26.29-.12,40.51ZM52.15,132.33c-.05.51-.31.96-.67,1.3-.37.34-.88.54-1.36.54s-.96-.2-1.35-.54c-.4-.34-.62-.79-.68-1.3-2.28-17.85-2.28-35.97,0-53.82,0-.57.2-1.1.59-1.47.4-.37.91-.59,1.47-.59s1.1.2,1.47.59c.36.4.59.93.59,1.47h.03c2.42,17.85,2.4,35.97-.09,53.82ZM64.62,132.25c0,.53-.22,1.01-.59,1.41-.37.39-.87.59-1.41.59s-1.02-.22-1.41-.59c-.4-.37-.59-.88-.59-1.41-2.88-20.26-1.89-39.24,0-59.55.05-.51.28-.99.65-1.3.36-.31.84-.51,1.35-.51s.99.17,1.35.51c.37.34.6.79.65,1.3h.03c2.03,20.56,2.93,39.01-.03,59.55ZM77.06,132.3c-.08.48-.34.94-.7,1.27-.37.34-.88.51-1.36.51s-.98-.2-1.35-.51-.62-.76-.71-1.27c-2.22-19.15-2.22-38.5,0-57.66.06-.51.29-.98.68-1.32.4-.34.88-.54,1.41-.54s1.05.2,1.41.54c.37.34.62.81.68,1.32h-.03c2.46,19.16,2.46,38.54-.03,57.66ZM89.48,132.28c-.06.48-.29.93-.65,1.27-.74.67-1.92.67-2.65,0-.37-.34-.6-.79-.65-1.27-2.99-22.21-1.7-43.08,0-65.34-.03-.28,0-.54.08-.82.09-.28.23-.53.42-.73.2-.2.43-.37.68-.48.51-.23,1.13-.23,1.64,0,.25.11.48.25.67.48.2.23.34.48.43.73.08.26.11.54.08.82h-.05c1.86,22.46,3.18,42.94,0,65.34ZM189.4,110.24c-.37,6.52-3.25,12.64-8.01,17.07-4.77,4.43-11.06,6.88-17.58,6.8h-61.5c-1.35,0-2.65-.56-3.61-1.52-.96-.96-1.49-2.26-1.49-3.61V62.74c-.06-1.13.25-2.26.87-3.22.62-.96,1.5-1.72,2.54-2.17,0,0,5.67-3.92,17.57-3.92,7.28,0,14.42,1.94,20.68,5.67,4.88,2.88,9.11,6.71,12.44,11.31,3.33,4.6,5.65,9.82,6.83,15.35,2.12-.6,4.32-.91,6.52-.91,3.3-.02,6.57.63,9.65,1.89,3.07,1.27,5.78,3.19,8.09,5.56s4.12,5.16,5.33,8.27c1.22,3.1,1.78,6.37,1.67,9.67Z"/>
  </g>
</svg>