<?xml version="1.0" encoding="UTF-8"?>
<svg id="Layer_2" data-name="Layer 2" xmlns="http://www.w3.org/2000/svg" viewBox="0 0 538.39 87.12">
  <g id="Layer_1-2" data-name="Layer 1">
    <g>
      <path d="M100.4,7.84c0,.81-.7,1.41-2.5,1.81-3.9.81-5.79,2.22-8.6,7.66-1.18,2.4-7.66,14.57-14.19,29.39h-.02l-7.92,25.29h-9.37l-7.35-25.29c-.15-.35-.3-.71-.45-1.05-.2-.3-.6-.5-.8-.2-.19.39-.39.82-.59,1.25h.01l-7.63,25.29h-9.52l-8.04-25.29h.02c-4.36-10.28-10.19-23.66-12.85-28.89-2.6-4.84-2.9-7.06-8-8.17-1.2-.2-2.6-.91-2.6-1.81,0-.5,1-1.11,2.6-1.11,4.4,0,6.6.3,10.7.3,2.3,0,7.5-.3,8.4-.3,1.9,0,2.5.5,2.5,1.21s-.6,1.31-2.7,1.92c-3.4.91-3.7,2.32-3.1,4.03,1.5,3.71,7.96,19.14,13.97,32.82h-.25l4.43,14.04,4.24-14.04h4.25c.81-1.74,1.62-3.51,2.36-5.18.1-.2.2-.91-.1-1.41-3.8-9.19-8.4-19.57-9.6-22.19-2.9-6.15-3.5-6.96-7.4-8.07-1.8-.5-2.5-1.21-2.5-1.81,0-.81,1.4-1.11,2.9-1.11,1.3,0,5,.1,8.2.1,4.6,0,8.5-.3,9.5-.3,1.3,0,2.5.4,2.5,1.11,0,.91-.8,1.61-2.4,1.92-4.3.81-4.5,1.61-3.1,4.84.9,2.32,3.5,8.27,7.2,16.54.1.3.6.2.8,0,2.4-4.94,4.3-9.18,6.3-13.81,2.5-5.55,1-6.76-3.1-7.76-1.2-.3-2.1-1.11-2.1-1.51,0-.71.6-1.21,2.9-1.21,1.8,0,3.7.2,7,.2,3,0,6.5-.2,8.2-.2,1.3,0,2.2.3,2.2,1.01,0,1.01-.8,1.41-2.8,1.92-3.6.91-5,2.22-7.8,7.26-1,1.71-3.7,6.45-9.5,17.96-.1.3.1,1.51.3,1.7,1.39,3.3,2.9,6.79,4.35,10.03h-1.38l4.07,14.12,4.46-14.12h5.02c4.1-9.16,8.97-20.23,12.88-29.19,1.9-4.64,1.4-6.55-3.2-7.86-1.3-.4-2.3-1.01-2.3-1.61,0-.91.9-1.21,2.6-1.21,2.3,0,4.9.2,6.8.2,3,0,6.4-.3,9.51-.3,1.7,0,2.59.4,2.59,1.11Z" style="fill: #96c;"/>
      <path d="M122.35,49.15c0-.95-.08-1.87-.18-2.77h-7.08c.06.52.11,1.05.14,1.62h-21.03c.03-.56.08-1.1.14-1.62h-.31c.06-.29.13-.54.21-.74.1-.3.51-.8.83-.8,4.76.1,22.46.1,23.6.1s1.97-1.1,1.97-1.7c0-3.5-1.35-6.3-3.63-8.41-2.58-2.5-6.62-3.79-10.25-3.79-1.76,0-5.17.59-7.86,1.79-6.02,2.69-9.96,7.81-11.58,13.55h.01c-.26,1.56-.41,3.19-.41,4.9,0,12.71,7.2,21.41,17.92,21.41,4.91,0,9.24-1.73,12.68-5.09,1.8-1.8,2.7-3.11,4.25-6.56l-5.48-2.71c-.9,2.46-3.11,8.86-10.88,8.86-1.47,0-10.72,0-11.37-13.69h28.14c.08-1.73.17-3.12.17-4.35ZM95.27,41.04c1.87-4.61,5.8-7.4,10.46-7.4,3.73,0,6.83,3.2,6.83,6,0,2-1.03,2.5-3.52,2.5-5.17.1-10.66.1-13.35,0-.21,0-.62-.6-.42-1.1Z" style="fill: #96c;"/>
      <path d="M161.11,60.06c0,.32,0,12.71-17.34,12.71-4.82,0-8.75-1.23-11.69-3.61-2.37-1.89-3.36-3.61-4.58-7.87l5.48-3.28c.65,6.15,4.5,9.18,11.61,9.18,5.56,0,9.73-2.62,9.73-6.07s-3.02-5.49-10.55-6.8c-6.17-1.16-11.92-3.05-14.11-7.94h.01c-.7-1.3-1.14-2.75-1.14-4.34,0-3.4,1.99-6.71,6.44-9,2.23-1.21,5.39-2.11,9.38-2.11,2.22,0,4.68.3,5.97.61,1.29.19,3.52,1,3.75,1.1.24.09.94.79.94,1.4,0,1.8.35,5.2.35,5.9,0,.9-.47,1.8-1.41,1.8-.46,0-1.17-.6-1.75-1.7-2.58-4.71-5.51-6.71-9.38-6.71-4.8,0-7.03,4.11-7.03,6.21,0,2.45,1.98,4.5,6.03,6.84h-1.05c1.33.4,2.89.74,4.72,1.05,1.8.33,15.46,1.72,15.62,12.63Z" style="fill: #96c;"/>
      <path d="M168.58,30.93c0-7.4-.3-17.9-.3-20.9,0-.8-.1-1.4-2.4-2.8-1.7-1.2-2-1.5-2-1.9s.3-1.1,1.4-1.4c4.6-1.6,7.6-2.2,10.3-3.9.3-.2.9.6.9,1-.3,2.5-.9,13.8-.9,27.2,0,5.78-.03,12.26-.04,18.15h-.28v25.68h-6.84" style="fill: #96c;"/>
      <path d="M219.2,49.15c0-.95-.07-1.87-.18-2.77h-7.09c.06.52.12,1.05.15,1.62h-21.05c.03-.56.08-1.1.14-1.62h-.24c.06-.29.14-.54.21-.74.11-.3.53-.8.84-.8,4.82.1,22.72.1,23.88.1s1.98-1.1,1.98-1.7c0-3.5-1.36-6.3-3.66-8.41-2.62-2.5-6.7-3.79-10.37-3.79-1.78,0-5.23.59-7.95,1.79-6.09,2.69-10.07,7.81-11.71,13.55-.26,1.56-.41,3.19-.41,4.9,0,12.71,7.21,21.41,17.93,21.41,4.92,0,9.26-1.73,12.7-5.09,1.8-1.8,2.7-3.11,4.26-6.56l-5.49-2.71c-.9,2.46-3.11,8.86-10.89,8.86-1.48,0-10.73,0-11.39-13.69h28.18c.08-1.73.16-3.12.16-4.35ZM192.19,41.04c1.89-4.61,5.86-7.4,10.58-7.4,3.77,0,6.91,3.2,6.91,6,0,2-1.05,2.5-3.56,2.5-5.24.1-10.79.1-13.51,0-.21,0-.63-.6-.42-1.1Z" style="fill: #96c;"/>
      <path d="M264.24,32.93c0,.9-1,1.31-2.2,1.71-2.1.69-3.4,1.9-4.9,5.2-.83,1.88-1.79,4.13-2.8,6.54l-8.27,26.63-.66,2.3c-2.05,6.89-3.53,11.81-12.82,11.81-1.15,0-2.47-.08-4.68-.33v-5.74c2.38.41,3.37.49,4.52.49,4.35,0,5.42-1.23,7.8-9.1l-8.93-26.06c-1.33-3.05-2.57-5.8-3.53-7.74-.89-1.8-1.39-2.8-4.68-3.9-1.4-.5-2-.91-2-1.51,0-.4.3-1.19,2.4-1.19,2.49,0,4.88.39,7.77.39s5.79-.2,6.99-.2c.79,0,2.19.31,2.19,1.1,0,.71-.7,1.31-2.29,1.71-2.8.8-3.1,1.3-2.1,3.9.5,1.59,1.54,4.38,2.73,7.44h-1.1l5.43,16.22,4.84-16.22h3.01c1.26-3.3,2.29-6.03,2.48-6.64.9-2.8.1-4-3.8-4.91-1.2-.29-2.1-1-2.1-1.4,0-.89,1.3-1.2,2.5-1.2,1.9,0,4.6.2,5.9.2,1.4,0,3.7-.39,6.3-.39,1.3,0,2,.19,2,.89Z" style="fill: #96c;"/>
      <path d="M343.23,46.38h.03v15.24c-2.81,3.03-4.01,4.18-6.71,5.82-6.11,3.85-14.03,6.06-21.85,6.06-20.27,0-33.78-10.61-34.97-27.12-.43-2.16-.68-4.46-.68-6.94,0-8.9,3.1-18.01,11.3-25.21,6.3-5.6,15.89-9,25.59-9,7.3,0,12.6,1.3,16.8,2.2,2,.4,2.7.5,3.8.8.4,0,1.2.8,1.2,2.4.1,2.4,1.4,7.2,1.4,11,0,1.3-.6,2.2-1.3,2.2-.6,0-1.2-.8-1.8-2.3-1-2.7-2.3-5.1-3.8-7-2.2-2.7-8-6.2-16-6.2-17.09,0-27.19,14-27.19,29.81,0,2.9.28,5.65.79,8.24h.46c1.17,12.58,10.15,19.91,24.6,19.91,10.33,0,15.34-4.27,18.44-7.22v-9.59h-28.15v-3.1h11.99c-.15-.21-.24-.42-.24-.64,0-.7,1.1-1.4,3-1.4,1.8,0,9.1.4,12,.4,2.4,0,5.8-.4,9-.4,1.6,0,2.7.5,2.7,1.3,0,.26-.16.51-.41.74Z" style="fill: #96c;"/>
      <path d="M377.56,34.33c0,.21-.3.91-.6,1.41-1.1,1.6-3.5,4.3-4.1,4.6-.2.1-1.1-.1-1.4-.3-1.1-1-3.5-2.2-5.5-2.2-1.7,0-3.4.3-4.4,1.4-.7.8-1,1.7-1,2.2,0,.57.04,2.48.1,4.94h-.25c-.03.35-.05.71-.05,1.07v24.55h-6.8v-30.16c0-1,0-2.3-1.1-3-2.4-1.9-3.4-2.3-3.4-2.7,0-.3.2-1.31,1.3-1.71,3.3-1.1,6.4-2.6,7.4-3.2,1.2-.8,1.7-1.2,2-1.2.4,0,.9.9.9,1.2,0,1.81-.2,3.6-.2,5.51,0,.4.5.5.7.4,3.9-3.71,8.3-6.21,11.4-6.21,4.1,0,5,2.5,5,3.4Z" style="fill: #96c;"/>
      <path d="M418.69,46.38v-.02c-2.24-9.65-10.91-15.43-19.42-15.43-6.7,0-11.7,2.81-14.8,5.5-2.76,2.32-5.18,5.48-6.31,9.93v.02c-.28,1.47-.43,3.01-.43,4.62,0,12.75,8.36,21.57,20.41,21.57,12.67,0,20.95-8.5,20.95-21.82,0-1.51-.14-2.98-.4-4.37ZM398.86,66.69c-8.45,0-13.22-5.56-13.22-15.28,0-1.83.16-3.52.46-5.03h.16c.69-4.01,2.55-7.65,4.61-9.54,2.1-1.8,4.4-2.91,6.5-2.91,2.6,0,6.2,1.5,8.4,3.91,2.18,2.53,3.5,5.49,4.24,8.54h.71c.29,1.45.45,3.07.45,4.86,0,9.65-4.67,15.45-12.31,15.45Z" style="fill: #96c;"/>
      <path d="M378.16,46.36v.02h-.01s0-.01.01-.02Z" style="fill: #96c;"/>
      <path d="M418.7,46.38h-.01v-.02s.01.01.01.02Z" style="fill: #96c;"/>
      <path d="M463.16,32.93c0,.61-.6.9-2.11,1.5-2.4.9-3.51,2.11-5.01,3.91-.73,1.13-2.1,4.29-3.67,8.04l-7.61,25.62h-7.1l-7.86-25.62c-1.59-3.52-3.11-6.7-4.21-8.64-.7-1.31-1.7-2.6-4.2-3.31-1.51-.5-1.91-.89-1.91-1.5,0-.7,1.51-1.1,2.41-1.1,1.8,0,7.21.5,8.31.5,2.61,0,5.11-.2,6.21-.2,1.5,0,2.31.41,2.31,1.1s-.91,1.1-2.21,1.51c-2.9.8-2.6,2.2-2.2,3.4.87,2.58,1.96,5.46,3.08,8.24h-1.1l4.88,15.82,4.75-15.82h2.97c1.27-3.36,2.37-6.39,2.74-7.64.8-2.6-.1-3.2-3.11-4.31-.8-.29-1.6-.69-1.6-1.29s.7-1.1,2-1.1c2.01,0,2.91.29,5.42.29,1.8,0,4.91-.5,6.81-.5,1.01,0,2.01.5,2.01,1.1Z" style="fill: #96c;"/>
      <path d="M499.51,49.15c0-.95-.07-1.87-.18-2.77h-7.11c.07.52.12,1.05.15,1.62h-21.1c.03-.56.08-1.1.14-1.62h-.31c.06-.29.13-.54.21-.74.1-.3.51-.8.82-.8,4.76.1,22.45.1,23.59.1s1.96-1.1,1.96-1.7c0-3.5-1.34-6.3-3.62-8.41-2.58-2.5-6.62-3.79-10.24-3.79-1.76,0-5.17.59-7.86,1.79-6.01,2.69-9.95,7.81-11.57,13.55h-.01c-.26,1.56-.41,3.19-.41,4.9,0,12.71,7.22,21.41,17.97,21.41,4.93,0,9.28-1.73,12.73-5.09,1.8-1.8,2.7-3.11,4.26-6.56l-5.5-2.71c-.9,2.46-3.11,8.86-10.91,8.86-1.48,0-10.75,0-11.41-13.69h28.23c.09-1.73.17-3.12.17-4.35ZM472.34,41.04c1.86-4.61,5.79-7.4,10.45-7.4,3.72,0,6.83,3.2,6.83,6,0,2-1.04,2.5-3.52,2.5-5.17.1-10.66.1-13.34,0-.21,0-.63-.6-.42-1.1Z" style="fill: #96c;"/>
      <path d="M538.39,60c0,.32,0,12.66-17.39,12.66-4.84,0-8.77-1.23-11.72-3.6-2.38-1.88-3.37-3.59-4.6-7.84l5.5-3.26c.65,6.12,4.51,9.14,11.64,9.14,5.58,0,9.76-2.61,9.76-6.04s-3.03-5.47-10.58-6.78c-6.19-1.15-11.96-3.03-14.15-7.9h.02c-.73-1.3-1.18-2.75-1.18-4.34,0-3.4,2.06-6.71,6.67-9,2.3-1.21,5.57-2.11,9.7-2.11,2.3,0,4.84.3,6.18.61,1.33.19,3.64,1,3.88,1.1.24.09.97.79.97,1.4,0,1.8.36,5.2.36,5.9,0,.9-.48,1.8-1.45,1.8-.49,0-1.22-.6-1.82-1.7-2.67-4.71-5.7-6.71-9.7-6.71-4.97,0-7.28,4.11-7.28,6.21,0,2.45,2.05,4.5,6.24,6.84h-1.45c1.33.39,2.9.74,4.73,1.04,1.81.33,15.5,1.72,15.67,12.58Z" style="fill: #96c;"/>
    </g>
  </g>
</svg>